<?xml version="1.0" standalone="no"?>
<!DOCTYPE svg PUBLIC "-//W3C//DTD SVG 20010904//EN"
 "http://www.w3.org/TR/2001/REC-SVG-20010904/DTD/svg10.dtd">
<svg version="1.0" xmlns="http://www.w3.org/2000/svg"
 width="900.000000pt" height="900.000000pt" viewBox="0 0 900.000000 900.000000"
 preserveAspectRatio="xMidYMid meet">

<g transform="translate(0.000000,900.000000) scale(0.100000,-0.100000)"
fill="#00AD6F" stroke="none">
<path d="M3876 8915 c-67 -46 -113 -93 -120 -121 -7 -28 -41 -32 -85 -10 -48
25 -227 66 -288 66 -56 0 -168 -26 -211 -49 -11 -6 -27 -30 -35 -53 l-14 -43
-99 3 c-110 4 -175 -8 -342 -63 -152 -51 -295 -139 -413 -255 -74 -73 -84 -90
-115 -195 -8 -25 -17 -31 -49 -38 -124 -24 -296 -72 -339 -94 -201 -101 -346
-247 -346 -348 0 -40 -13 -51 -126 -109 -49 -25 -120 -71 -156 -101 -74 -60
-211 -212 -235 -260 -9 -16 -21 -37 -28 -45 -7 -8 -40 -69 -74 -135 -73 -144
-76 -171 -25 -213 46 -38 40 -62 -21 -92 -25 -12 -48 -27 -52 -32 -6 -10 19
-36 56 -58 29 -18 -31 -57 -137 -90 -115 -36 -155 -58 -182 -102 -26 -43 -26
-121 -1 -168 22 -43 13 -71 -34 -100 -55 -34 -123 -114 -135 -160 -14 -51 -9
-142 10 -187 l14 -32 -77 -80 c-94 -96 -121 -150 -121 -241 0 -75 17 -133 50
-173 13 -16 24 -34 24 -40 0 -7 -27 -51 -60 -99 l-60 -86 0 -336 0 -335 36
-65 35 -65 -17 -36 c-9 -20 -25 -42 -36 -48 -16 -11 -18 -28 -18 -190 l0 -178
50 -53 c28 -29 50 -58 50 -65 0 -6 -11 -33 -23 -59 -39 -78 -50 -135 -44 -223
7 -101 34 -159 122 -257 60 -68 65 -76 65 -120 0 -126 82 -419 144 -516 20
-31 53 -68 75 -84 56 -41 326 -129 432 -141 46 -5 127 -19 179 -31 158 -36
302 -60 362 -60 48 0 59 -3 68 -21 19 -34 5 -49 -42 -49 -24 0 -61 5 -83 10
-97 22 -306 42 -395 38 -153 -7 -260 -56 -260 -119 0 -43 82 -200 187 -361 42
-63 170 -194 243 -248 53 -40 153 -90 177 -90 2 0 26 -45 53 -101 80 -159 171
-243 364 -334 132 -63 191 -79 266 -70 66 8 74 1 120 -94 63 -129 127 -200
263 -291 136 -91 266 -146 402 -170 111 -20 121 -21 153 -6 38 19 67 14 82
-14 12 -22 109 -98 160 -126 29 -16 56 -19 165 -19 114 0 136 3 181 23 28 13
57 34 64 48 23 43 43 35 170 -74 41 -35 105 -79 142 -98 l68 -34 155 0 c174 0
191 5 258 69 l38 36 98 -53 98 -52 163 0 162 0 68 36 c39 20 99 65 140 105 40
38 74 69 77 69 3 0 42 -17 87 -37 l81 -38 140 0 c135 0 142 1 187 28 53 31 78
61 78 93 0 28 22 33 119 27 165 -12 403 58 568 165 28 19 66 35 84 35 29 2 33
-1 40 -31 13 -63 63 -95 104 -68 36 24 33 67 -6 100 -17 14 -41 26 -55 26 -39
0 -29 29 31 100 62 73 95 133 95 173 0 38 8 42 183 67 42 6 105 27 166 55 54
25 103 45 109 45 6 0 43 24 82 54 102 76 200 202 200 255 0 34 50 81 129 121
77 38 164 102 237 175 48 48 138 164 161 208 9 18 29 52 46 76 37 54 97 194
97 225 0 42 -75 86 -183 106 -138 25 -487 -9 -512 -50 -17 -27 -85 4 -85 39 0
23 68 42 153 41 69 -1 108 6 246 44 91 25 179 46 195 46 46 1 109 17 221 57
55 19 118 41 141 49 105 37 199 165 250 340 38 130 43 210 18 274 l-16 41 83
82 c115 112 163 202 163 302 0 64 -4 80 -42 154 -39 77 -41 84 -27 110 7 15
21 34 30 41 10 8 32 38 51 67 l34 53 0 127 0 127 -50 48 c-27 26 -50 55 -50
63 0 9 9 34 20 56 12 22 34 78 50 124 l30 83 0 256 0 257 -30 59 c-16 32 -45
71 -65 86 -43 33 -45 58 -10 169 14 45 25 105 25 137 0 107 -65 229 -131 243
-17 4 -33 14 -36 22 -3 8 2 48 12 89 20 85 15 155 -15 213 -27 55 -92 117
-129 124 l-31 7 6 108 c12 189 -7 212 -232 282 -39 13 -82 31 -95 41 l-24 19
33 28 c45 38 41 55 -22 86 -30 15 -56 33 -59 40 -3 8 11 30 34 50 21 20 39 45
39 55 0 29 -45 141 -81 201 -91 154 -165 252 -255 336 -117 109 -176 147 -221
139 -29 -5 -35 -2 -56 32 -13 21 -32 62 -41 91 -20 61 -108 176 -182 240 -55
48 -221 136 -274 147 -19 3 -56 13 -82 21 -25 8 -72 16 -104 17 l-59 2 -35 65
c-76 137 -135 205 -262 296 -168 123 -364 194 -547 201 -105 3 -105 3 -150 41
-69 58 -93 71 -167 92 -74 21 -167 26 -224 11 -19 -6 -54 -15 -77 -21 -23 -6
-56 -22 -73 -37 -38 -32 -50 -28 -141 49 -35 30 -85 69 -111 86 l-47 32 -226
0 -226 0 -20 -35 c-12 -19 -27 -35 -35 -35 -17 0 -123 50 -130 61 -3 5 -110 9
-237 8 l-232 0 -49 -34z m359 -26 c61 -23 115 -63 115 -85 0 -8 -37 -50 -82
-92 -45 -42 -102 -96 -127 -120 -24 -23 -49 -41 -55 -39 -22 7 -17 40 12 71
49 51 103 138 100 159 -2 11 -11 25 -20 31 -24 14 -136 -41 -169 -83 -64 -84
-65 -84 -91 -78 -39 10 -78 46 -78 72 0 28 36 60 131 116 119 71 175 81 264
48z m640 10 c48 -13 177 -90 223 -133 17 -16 32 -38 32 -48 0 -24 -72 -68
-110 -68 -25 0 -35 7 -57 44 -19 31 -46 56 -87 80 -68 40 -78 42 -100 21 -11
-12 -14 -28 -9 -65 7 -61 -4 -64 -68 -19 -53 37 -89 78 -89 101 0 21 74 66
138 83 60 17 78 17 127 4z m-372 -171 c48 -33 147 -119 178 -154 15 -16 44
-39 63 -49 20 -11 36 -27 36 -37 0 -9 -26 -39 -57 -67 -187 -163 -223 -191
-242 -191 -19 0 -166 119 -213 172 -45 51 -9 61 76 22 102 -47 231 -39 282 17
24 26 13 44 -50 83 -42 26 -59 31 -149 35 -123 7 -130 17 -63 89 25 26 50 60
55 75 13 33 41 35 84 5z m-952 -19 c57 -29 57 -46 0 -101 -27 -26 -74 -78
-104 -115 -73 -91 -143 -157 -156 -149 -19 12 -12 43 13 60 36 23 55 113 35
170 -12 35 -22 45 -73 71 -33 17 -62 35 -64 42 -15 49 262 67 349 22z m2168
-3 c32 -29 26 -43 -29 -67 -28 -12 -57 -31 -65 -43 -23 -32 -19 -104 10 -158
34 -65 33 -78 -10 -78 -31 0 -35 3 -44 37 -6 20 -24 50 -40 67 -71 73 -181
212 -181 228 0 21 100 37 216 35 104 -2 125 -5 143 -21z m-869 -112 c0 -19
-16 -18 -24 2 -11 27 -7 37 9 24 8 -7 15 -19 15 -26z m-1062 -4 c54 -39 54
-63 3 -90 -22 -11 -57 -40 -77 -64 -21 -25 -50 -50 -65 -57 -16 -6 -34 -18
-41 -26 -20 -25 32 -63 86 -63 50 0 92 25 178 106 52 50 89 66 102 46 8 -14
-17 -54 -96 -153 -41 -52 -82 -109 -92 -126 -9 -18 -23 -33 -32 -33 -8 0 -52
22 -97 49 -45 26 -107 61 -137 77 -35 19 -56 36 -58 49 -1 12 21 50 57 95 33
41 85 108 116 148 66 84 87 90 153 42z m1479 10 c18 -11 61 -57 95 -102 35
-45 85 -104 112 -130 57 -54 56 -59 -27 -107 -29 -17 -88 -52 -132 -80 -79
-48 -80 -49 -107 -33 -14 10 -64 64 -111 122 -46 58 -94 114 -106 124 -25 22
-27 42 -6 50 24 9 45 -4 128 -75 90 -78 145 -98 216 -79 40 11 66 37 53 56 -4
5 -20 18 -37 28 -16 11 -58 43 -91 73 -34 29 -75 58 -93 64 -41 14 -40 39 4
78 42 36 58 38 102 11z m876 -31 c133 -31 208 -61 240 -97 25 -27 32 -82 14
-107 -15 -19 -17 -18 -102 24 -110 55 -190 65 -273 32 -30 -12 -58 -18 -64
-15 -10 6 -4 135 8 177 7 23 26 22 177 -14z m-3130 1 c5 -4 4 -17 -2 -28 -6
-11 -11 -46 -11 -76 0 -34 -4 -56 -11 -56 -6 0 -36 7 -67 16 -70 21 -145 13
-224 -23 -59 -26 -118 -81 -118 -109 0 -27 50 -157 67 -177 33 -35 72 -48 146
-48 40 0 93 7 120 15 76 24 79 19 75 -95 -4 -136 -34 -162 -61 -53 -14 59 -32
65 -77 27 -65 -54 -77 -137 -34 -249 25 -66 25 -69 9 -111 -21 -53 -230 -370
-253 -382 -9 -5 -60 -10 -112 -12 -110 -5 -119 3 -76 68 14 21 31 54 37 73 15
46 32 65 100 111 115 78 181 176 210 310 9 41 7 57 -14 118 -26 73 -69 137
-116 170 -15 11 -63 34 -107 51 -77 31 -104 46 -104 59 0 3 21 16 48 28 26 12
59 37 72 55 22 29 25 42 23 104 -3 85 8 101 108 154 106 56 337 94 372 60z
m2826 -22 c13 -36 5 -92 -15 -108 -19 -17 -52 -3 -69 30 -22 42 -19 56 18 84
42 34 53 33 66 -6z m-2621 -10 c25 -21 7 -118 -22 -118 -25 0 -74 49 -81 81
-10 43 9 62 54 54 20 -4 42 -11 49 -17z m962 -205 c25 -27 80 -77 123 -113 83
-70 102 -104 71 -127 -72 -51 -118 -92 -131 -118 -15 -30 -121 -145 -134 -145
-3 0 -39 31 -78 69 -101 97 -97 107 36 102 61 -2 115 2 137 9 67 22 69 76 4
100 -58 21 -198 25 -242 6 -104 -44 -88 5 59 180 86 102 91 103 155 37z m731
5 c12 -23 45 -72 74 -108 54 -66 102 -150 87 -150 -4 0 -28 10 -53 23 -36 18
-60 22 -139 22 -114 0 -139 -6 -184 -46 -39 -34 -57 -31 -95 17 -21 26 -29 74
-13 74 5 0 53 37 107 81 113 94 162 129 181 129 8 0 23 -19 35 -42z m-2006
-31 c48 -27 55 -54 22 -85 -31 -29 -130 -49 -170 -33 -70 27 -53 99 31 125 63
20 71 19 117 -7z m3300 -1 c55 -23 57 -88 5 -116 -29 -16 -197 -2 -204 17 -8
21 18 78 45 97 29 20 108 21 154 2z m431 -18 c15 -18 36 -53 47 -77 23 -52 15
-62 -45 -51 -36 7 -54 2 -152 -41 -127 -57 -195 -114 -246 -211 -17 -32 -35
-58 -40 -58 -6 0 -21 21 -34 48 -23 45 -71 102 -86 102 -15 0 -28 -26 -41 -83
-20 -93 -51 -101 -87 -23 -23 47 -28 95 -13 111 4 6 14 32 21 58 7 27 19 51
26 54 8 3 30 -5 50 -18 29 -17 56 -24 118 -27 72 -3 85 -1 116 20 19 13 55 54
80 90 25 37 52 67 61 68 8 0 30 -11 49 -25 44 -32 97 -47 121 -34 23 12 24 26
4 73 -26 63 5 77 51 24z m-885 3 c14 -10 40 -28 59 -38 29 -16 36 -26 38 -58
8 -92 -26 -112 -77 -44 -16 23 -44 50 -60 60 -17 10 -29 24 -26 31 27 78 28
79 66 49z m-2504 -27 c3 -8 1 -26 -5 -39 -15 -32 -95 -144 -105 -144 -10 -1
-66 62 -67 75 0 6 10 19 21 30 12 10 32 36 45 57 21 33 29 37 64 37 28 0 43
-5 47 -16z m-906 -45 c4 -18 5 -37 3 -41 -9 -13 -51 -9 -64 7 -9 11 -8 20 10
45 27 38 42 35 51 -11z m1110 -43 c22 -18 68 -48 102 -66 113 -60 135 -97 73
-127 -33 -15 -38 -15 -100 5 -61 20 -68 21 -123 6 -94 -24 -137 -59 -215 -175
-74 -111 -77 -126 -23 -140 73 -20 193 38 296 144 104 105 132 104 62 -2 -21
-32 -58 -90 -83 -131 -25 -40 -58 -87 -74 -103 l-30 -29 -17 23 -17 22 -101
-17 c-56 -10 -108 -16 -116 -12 -19 7 -19 72 0 106 8 15 14 53 15 93 0 37 7
97 16 132 16 64 17 65 50 65 30 0 39 8 91 77 32 43 66 91 76 108 40 64 63 69
118 21z m2183 22 c3 -7 7 -25 10 -40 3 -15 32 -67 65 -115 215 -323 213 -320
197 -422 -6 -41 -17 -76 -23 -78 -6 -2 -28 3 -49 12 -54 22 -171 38 -194 25
-15 -8 -26 0 -69 49 -28 32 -58 76 -67 97 -9 22 -26 53 -38 69 -34 45 -37 53
-27 60 5 3 23 -14 40 -39 62 -89 250 -178 315 -148 14 6 26 18 26 26 0 18 -64
138 -98 183 -33 44 -108 90 -170 105 -46 10 -64 9 -128 -7 l-74 -18 -29 27
c-31 30 -43 57 -32 74 3 6 33 19 66 31 32 12 82 36 110 54 58 38 105 58 158
66 4 0 9 -5 11 -11z m-3224 -180 c74 -20 91 -29 137 -74 37 -34 53 -58 53 -75
0 -43 -12 -41 -56 6 -36 40 -47 46 -76 43 -30 -3 -33 -6 -36 -40 -2 -22 -8
-38 -16 -38 -6 0 -34 14 -62 31 -27 18 -67 40 -90 49 -45 20 -97 74 -92 98 7
37 98 37 238 0z m2144 -40 c39 -40 98 -106 130 -146 67 -84 67 -89 -2 -164
-21 -24 -59 -70 -84 -103 -68 -90 -102 -119 -130 -112 -21 6 -119 123 -134
160 -8 21 14 22 78 2 30 -9 57 -11 75 -6 74 21 173 88 173 117 0 25 -32 44
-125 74 -66 21 -115 30 -160 30 -58 0 -65 2 -65 20 0 11 24 47 54 79 30 33 62
73 71 90 8 17 23 31 32 31 9 0 48 -33 87 -72z m2186 47 c20 -52 -19 -91 -132
-131 -37 -13 -41 -12 -69 8 -28 21 -32 21 -72 8 -36 -13 -46 -23 -70 -73 -29
-60 -47 -66 -47 -16 0 56 54 135 114 166 34 18 198 60 239 62 21 1 30 -5 37
-24z m209 -20 c17 -20 31 -41 31 -47 0 -7 10 -31 21 -55 19 -39 21 -55 15
-146 -10 -175 -22 -250 -44 -288 -26 -42 -69 -209 -77 -299 -8 -87 -17 -101
-47 -73 -13 11 -44 30 -69 41 -52 22 -67 38 -50 55 20 20 12 62 -20 111 l-32
47 73 67 c68 63 73 72 102 157 26 78 31 111 38 250 4 88 5 165 3 172 -6 16 3
43 16 43 5 0 23 -16 40 -35z m-1935 -2 c5 -12 -12 -34 -61 -80 -77 -73 -117
-97 -138 -86 -25 14 -106 146 -95 157 5 5 40 8 77 7 37 -1 82 3 98 8 52 16
112 13 119 -6z m-2943 -178 c7 -195 9 -205 62 -311 34 -68 48 -85 111 -137
l29 -24 -32 -57 c-27 -47 -32 -63 -26 -94 6 -36 4 -39 -34 -61 -26 -14 -53
-21 -73 -19 l-33 3 -6 75 c-8 94 -14 117 -55 211 -23 52 -36 98 -40 150 -4 41
-15 100 -25 133 -24 75 -24 101 2 194 23 83 56 125 93 120 20 -3 21 -9 27
-183z m5109 116 c136 -65 280 -210 248 -248 -7 -8 -36 -13 -82 -13 -39 0 -93
-7 -120 -15 -28 -8 -58 -12 -69 -9 -17 5 -18 12 -12 53 18 113 -5 180 -80 233
-25 18 -45 36 -45 41 0 19 76 -1 160 -42z m-5270 34 c0 -2 -20 -23 -45 -46
-58 -53 -72 -100 -56 -185 16 -91 18 -87 -41 -80 -29 3 -89 10 -133 15 -81 9
-115 18 -115 30 0 17 46 78 91 121 49 47 149 106 226 135 39 14 73 19 73 10z
m2034 -141 c65 -48 95 -75 95 -89 1 -23 -85 -162 -130 -210 -15 -16 -50 -80
-78 -141 -27 -61 -65 -138 -84 -170 -19 -32 -45 -90 -58 -128 -35 -104 -97
-206 -144 -238 -87 -61 -301 -79 -455 -39 -97 25 -127 43 -155 94 l-20 36 23
88 c12 48 22 109 22 135 0 43 2 47 31 57 49 17 158 14 165 -4 3 -8 -2 -47 -11
-88 -31 -129 -3 -188 98 -212 48 -11 68 -11 122 0 82 18 93 24 149 86 53 59
60 79 54 155 -6 74 -39 108 -130 135 -38 12 -68 26 -68 31 0 6 14 38 31 72 55
109 91 124 103 43 12 -77 92 -178 130 -164 8 3 16 29 20 69 8 75 -9 137 -52
201 -42 61 -46 80 -24 129 23 52 106 164 127 172 27 10 29 -24 5 -96 -23 -71
-24 -134 -2 -283 9 -64 34 -71 87 -24 62 55 70 79 70 214 0 111 -2 124 -28
172 -50 97 -31 96 107 -3z m1186 42 c0 -8 -13 -46 -30 -84 -34 -81 -36 -111
-14 -212 19 -81 63 -149 108 -165 33 -11 46 3 46 53 0 19 8 63 17 98 l17 64
-32 95 c-37 109 -41 155 -14 155 10 0 30 -12 44 -27 33 -37 114 -162 123 -190
7 -24 -13 -71 -40 -93 -23 -19 -52 -78 -60 -122 -10 -54 12 -148 34 -148 44 0
111 93 125 172 12 66 22 62 96 -40 51 -72 52 -74 34 -91 -10 -10 -44 -28 -74
-41 -30 -12 -63 -30 -74 -39 -101 -89 -24 -298 123 -330 127 -27 225 -1 262
69 26 48 24 92 -8 156 -16 33 -23 58 -17 64 12 12 138 32 158 24 31 -12 76
-172 76 -271 0 -92 -15 -124 -72 -150 -84 -40 -145 -47 -233 -29 -183 38 -213
52 -291 131 -108 109 -269 360 -303 472 -20 65 -148 246 -201 283 -21 15 -28
26 -22 36 16 29 105 114 150 144 49 33 72 38 72 16z m-2623 -120 c51 -53 51
-54 41 -94 -12 -50 -44 -80 -132 -127 -53 -28 -79 -35 -110 -33 -39 3 -42 5
-73 68 -46 91 -60 151 -45 185 14 31 2 37 130 -62 45 -35 85 -63 91 -63 20 0
31 39 31 109 0 39 4 71 8 71 4 0 31 -24 59 -54z m4260 -55 c-9 -93 -23 -136
-58 -171 -23 -22 -40 -30 -67 -30 -41 0 -95 29 -111 59 -6 11 -26 25 -46 31
-37 12 -85 61 -85 87 0 26 31 53 61 53 25 0 29 -5 34 -37 14 -86 17 -93 34
-93 9 0 27 13 39 29 28 38 182 152 195 144 6 -3 7 -32 4 -72z m-507 -27 c61
-114 100 -159 180 -210 56 -35 63 -44 113 -146 l54 -108 -26 -7 c-33 -8 -136
19 -216 57 -59 28 -65 34 -79 78 -9 26 -49 97 -88 157 -57 87 -72 117 -71 146
0 40 48 129 68 129 7 0 37 -43 65 -96z m-2002 38 c2 -7 -6 -12 -17 -12 -21 0
-27 11 -14 24 9 9 26 2 31 -12z m629 -136 c21 -30 37 -56 108 -176 18 -30 38
-73 45 -95 7 -22 28 -71 46 -110 42 -88 55 -174 44 -297 -10 -106 -23 -157
-48 -188 -21 -26 -42 -20 -66 21 -25 43 -62 65 -81 49 -23 -19 -18 -45 20
-119 19 -37 35 -73 35 -80 0 -25 -33 -74 -102 -149 -38 -42 -97 -111 -129
-153 -66 -87 -123 -136 -168 -145 -26 -6 -44 2 -118 52 -111 74 -177 140 -462
465 -49 56 -55 91 -13 87 24 -3 30 4 58 57 27 53 73 127 118 190 24 34 29 9
12 -57 -10 -35 -20 -107 -23 -161 l-6 -98 44 -86 c34 -66 64 -106 130 -172 47
-47 111 -104 143 -125 52 -36 58 -38 73 -23 15 15 15 23 0 101 -16 80 -42 161
-80 248 -16 34 -15 37 3 61 11 14 25 48 32 77 17 74 -3 108 -93 155 -87 45
-93 64 -50 137 17 29 45 81 62 116 17 34 37 62 44 62 15 0 93 -96 117 -145 30
-59 31 -89 4 -154 -30 -70 -31 -82 -11 -136 8 -22 14 -71 15 -108 0 -47 8 -93
26 -145 15 -42 29 -101 33 -131 9 -77 29 -87 79 -38 21 21 54 68 73 105 l34
67 0 145 0 145 -38 90 c-39 92 -72 147 -184 315 -35 52 -63 102 -63 111 0 14
70 80 109 103 20 13 31 -13 24 -60 -3 -24 -2 -64 1 -91 7 -45 15 -55 114 -154
59 -58 117 -117 129 -133 19 -23 26 -25 43 -16 38 20 55 69 55 161 0 82 -2 88
-39 150 -22 35 -61 88 -88 118 -83 91 -109 168 -71 207 16 16 18 16 28 -1 5
-9 20 -31 32 -49z m-743 18 c10 -27 -12 -88 -47 -130 -51 -59 -125 -189 -138
-238 -16 -63 -9 -101 18 -101 12 0 25 -4 29 -7 3 -4 -9 -42 -27 -85 -29 -70
-33 -87 -32 -170 1 -51 -3 -93 -7 -93 -15 0 -50 51 -61 89 -7 22 -9 101 -7
201 3 164 3 165 35 220 17 30 39 75 49 100 9 25 29 61 43 80 14 19 39 55 54
80 43 68 78 89 91 54z m-2387 -53 c21 -10 57 -36 81 -57 37 -34 47 -51 68
-123 13 -47 21 -88 16 -93 -4 -4 -23 14 -42 40 -21 27 -56 58 -85 74 -60 32
-211 82 -225 73 -19 -12 -10 -49 30 -116 52 -87 82 -111 218 -176 61 -29 112
-57 112 -61 0 -31 -76 -60 -178 -69 -54 -4 -83 -13 -108 -30 -19 -12 -39 -23
-44 -23 -16 0 -49 52 -56 87 -10 55 6 60 76 24 48 -24 67 -28 81 -20 26 13 24
36 -8 78 -51 69 -87 101 -134 116 -64 22 -78 41 -94 129 -7 42 -20 88 -30 102
-15 24 -16 28 -1 42 36 36 254 39 323 3z m5698 23 c34 -13 48 -62 40 -143 -10
-115 -22 -132 -121 -180 -46 -22 -84 -46 -84 -53 0 -6 -21 -43 -46 -81 l-47
-69 -48 4 c-56 6 -101 31 -93 53 5 13 124 75 211 111 27 11 109 134 125 187
16 54 3 64 -58 43 -26 -9 -55 -16 -63 -16 -29 0 -122 -49 -169 -89 -34 -30
-49 -37 -59 -29 -18 15 -7 52 37 129 63 107 121 135 287 138 39 0 79 -2 88 -5z
m-4176 -132 c-52 -101 -67 -114 -108 -89 -16 9 -46 17 -66 17 -115 0 -94 81
24 93 65 7 108 25 156 65 45 38 43 11 -6 -86z m1028 24 c49 -56 89 -114 98
-143 5 -18 -1 -27 -32 -46 -46 -29 -62 -47 -88 -100 -22 -45 -45 -60 -45 -29
0 38 -29 55 -82 49 -30 -4 -48 -2 -48 4 0 6 18 41 40 78 26 44 46 94 56 141 8
41 17 77 20 82 12 19 45 5 81 -36z m3398 1 c58 -42 87 -72 161 -166 37 -47 38
-68 1 -34 -33 31 -178 105 -193 99 -18 -7 -18 -50 0 -84 18 -34 62 -75 103
-96 49 -25 48 -33 -9 -62 -29 -15 -81 -55 -114 -90 -66 -69 -94 -79 -133 -46
l-21 17 25 50 c13 28 29 79 35 115 5 36 21 99 35 140 15 44 25 96 25 130 0 85
4 86 85 27z m-6358 -57 c1 -57 13 -111 47 -225 49 -160 54 -196 31 -215 -24
-20 -60 -3 -104 48 -83 100 -153 130 -246 107 -113 -29 -122 -74 -19 -95 31
-7 67 -22 82 -36 26 -23 27 -24 8 -39 -15 -11 -46 -15 -119 -15 -133 0 -158
16 -123 80 7 14 26 47 41 75 63 116 84 132 145 110 65 -23 138 2 166 57 48 92
32 126 -42 90 -47 -23 -84 -29 -84 -13 0 34 158 154 195 149 18 -3 20 -11 22
-78z m4412 54 c32 -9 68 -13 90 -9 50 8 87 -19 78 -57 -7 -25 -8 -26 -124 -30
-65 -3 -124 -3 -131 0 -10 3 -12 15 -7 41 14 81 12 80 94 55z m-2841 -48 c13
-34 13 -39 -1 -53 -21 -21 -90 -23 -95 -2 -4 19 55 102 70 97 6 -2 17 -21 26
-42z m3208 -11 c36 -54 36 -56 19 -75 -40 -44 -79 -5 -93 93 -4 33 -2 37 17
37 14 0 32 -17 57 -55z m-3321 -188 c48 -28 48 -33 11 -172 -36 -131 -52 -148
-145 -153 -73 -4 -145 12 -138 31 2 7 33 14 69 17 75 6 95 19 136 89 25 42 25
44 7 57 -12 9 -31 12 -51 8 -40 -7 -49 7 -29 46 20 39 74 100 89 100 6 0 29
-11 51 -23z m588 -3 c57 -19 74 -44 57 -84 -21 -50 -95 -100 -149 -100 -63 0
-69 113 -9 178 25 26 39 27 101 6z m2309 -29 c3 -22 9 -56 13 -76 16 -79 -65
-103 -152 -45 -84 56 -83 119 2 148 28 10 68 17 90 15 38 -2 40 -4 47 -42z
m562 -5 c76 -29 96 -50 96 -100 0 -45 -9 -49 -67 -25 -74 31 -108 13 -79 -43
19 -37 73 -72 123 -78 72 -10 80 -14 93 -43 12 -29 6 -71 -10 -71 -4 0 -21 7
-36 15 -16 8 -53 15 -81 15 -47 0 -58 4 -93 36 -27 25 -41 47 -45 72 -4 21
-15 67 -26 104 -22 76 -23 101 -8 130 13 24 43 22 133 -12z m1710 -29 c15 -16
17 -24 8 -33 -8 -8 -23 -6 -59 7 -66 24 -71 31 -43 60 23 24 23 24 49 6 14
-10 35 -28 45 -40z m-556 -73 c-3 -63 -3 -63 -35 -66 -38 -4 -95 23 -87 41 6
14 104 87 117 87 4 0 7 -28 5 -62z m-4962 9 c2 -7 -2 -30 -11 -50 -8 -20 -15
-54 -15 -76 0 -28 -5 -41 -17 -46 -37 -14 -291 -35 -315 -26 -13 5 -33 25 -43
46 l-20 37 23 18 c12 10 48 24 80 30 31 7 104 27 162 45 116 37 148 41 156 22z
m4156 -11 c35 -14 91 -30 124 -37 51 -10 64 -9 98 5 49 20 50 18 66 -87 17
-108 19 -107 -172 -107 -167 0 -156 -6 -185 93 -8 29 -24 69 -35 89 -40 70 -5
85 104 44z m1438 -38 c31 -33 37 -68 15 -85 -27 -19 -215 -18 -241 2 -19 15
-18 16 9 40 15 14 40 27 55 31 15 3 45 11 67 19 58 18 72 17 95 -7z m-6106
-126 c-1 -18 -10 -44 -19 -58 -15 -23 -21 -25 -48 -18 -39 10 -98 9 -199 -1
-66 -7 -78 -6 -78 7 0 28 40 68 68 68 15 0 45 5 67 11 63 18 127 27 170 26 39
-2 40 -3 39 -35z m5250 17 c65 -13 136 -45 136 -61 0 -8 -16 -29 -35 -48 l-34
-33 -53 16 c-29 9 -73 19 -98 23 -63 9 -90 28 -90 64 0 60 31 67 174 39z
m-5677 -70 c59 -37 29 -59 -111 -83 -232 -39 -277 -48 -366 -71 -173 -45 -206
-30 -114 52 44 39 67 53 89 53 65 -1 392 44 415 56 35 18 47 17 87 -7z m6253
-28 c63 -7 139 -14 169 -17 49 -5 59 -11 103 -57 26 -28 48 -57 48 -64 0 -19
-90 -16 -185 6 -161 39 -298 61 -374 61 -81 0 -101 9 -101 45 0 41 18 47 125
42 55 -2 152 -9 215 -16z m-5645 -82 l20 -20 -44 -82 c-24 -45 -54 -96 -67
-114 -27 -35 -29 -54 -13 -85 9 -18 8 -24 -7 -35 -10 -7 -31 -13 -46 -13 -16
0 -104 -24 -196 -54 -92 -30 -194 -62 -227 -71 -71 -21 -133 -59 -235 -146
-41 -35 -116 -91 -165 -123 -50 -33 -130 -86 -178 -118 -90 -59 -133 -77 -146
-62 -11 13 -51 115 -51 131 0 7 12 18 28 24 108 40 259 143 330 223 44 50 84
133 77 156 -20 62 -350 63 -511 1 -121 -46 -130 -47 -149 -17 -35 53 1 110 86
135 24 7 76 24 114 36 112 38 206 63 264 70 29 3 105 19 168 36 127 32 183 37
183 15 0 -8 -9 -33 -20 -57 -11 -26 -20 -66 -20 -99 0 -30 -5 -73 -11 -95 -30
-113 -22 -127 58 -91 34 16 61 39 87 75 47 64 58 107 44 183 -12 69 0 109 38
127 33 15 76 14 97 -2 16 -11 16 -16 -9 -64 -21 -40 -25 -59 -20 -87 8 -39 68
-110 88 -104 8 3 14 25 16 55 4 69 19 81 75 59 54 -20 106 -21 135 0 23 16 62
83 62 106 0 7 14 42 30 77 30 62 31 63 63 57 17 -4 41 -16 52 -27z m295 11
c12 -12 20 -33 20 -54 0 -24 16 -58 60 -123 79 -119 85 -138 59 -164 -14 -14
-28 -19 -47 -15 -106 22 -246 37 -294 33 -34 -3 -61 -1 -64 5 -3 5 16 31 44
56 52 49 64 79 79 205 4 33 13 53 27 62 30 22 92 19 116 -5z m495 -46 c77 -25
187 -63 245 -84 58 -21 132 -44 164 -51 32 -7 104 -36 160 -63 97 -49 105 -56
219 -181 149 -164 168 -195 170 -276 3 -97 -5 -98 -180 -9 -143 73 -149 77
-200 145 -29 39 -69 84 -88 101 -43 38 -191 90 -285 99 -105 11 -277 64 -356
110 -66 39 -184 187 -184 231 0 24 2 24 98 24 89 0 109 -4 237 -46z m3855 24
c87 2 185 -12 208 -30 6 -6 12 -28 12 -50 0 -39 19 -88 48 -120 22 -26 82 -23
154 8 71 30 86 21 61 -35 -28 -65 -35 -105 -24 -134 6 -15 17 -27 24 -27 14 0
96 90 116 128 7 14 11 54 9 105 -3 78 -2 82 19 85 37 5 50 -32 55 -148 5 -112
15 -142 71 -213 37 -48 94 -77 150 -77 46 0 67 13 67 42 0 10 3 18 8 18 4 0
41 -34 82 -76 80 -81 149 -132 270 -202 41 -24 90 -53 107 -65 34 -23 44 -47
19 -47 -8 0 -33 -16 -56 -35 -23 -19 -49 -35 -59 -35 -9 0 -79 42 -155 93 -76
50 -155 103 -176 117 -21 14 -71 50 -111 81 -99 76 -115 83 -270 120 -131 31
-139 32 -367 31 -225 0 -310 -8 -437 -37 -111 -25 -220 -45 -251 -45 -68 0
-73 56 -11 132 97 120 127 168 170 276 59 148 67 156 132 145 27 -4 88 -7 135
-5z m-4892 -29 c2 -15 -5 -32 -17 -43 -17 -15 -25 -16 -55 -6 -37 12 -63 36
-52 48 14 13 71 31 96 29 19 -2 26 -8 28 -28z m4530 -3 c5 -37 -25 -121 -55
-157 -46 -54 -165 -133 -303 -201 -74 -37 -155 -78 -180 -92 -103 -56 -266
-117 -340 -127 -41 -5 -106 -22 -145 -38 -141 -57 -225 -65 -225 -21 0 20 80
128 107 143 8 5 23 23 33 40 43 70 248 213 348 243 25 8 73 25 107 38 33 14
98 32 145 41 47 9 135 36 195 60 141 56 287 105 300 102 6 -2 11 -16 13 -31z
m742 -26 c0 -5 -9 -10 -20 -10 -11 0 -20 5 -20 10 0 6 9 10 20 10 11 0 20 -4
20 -10z m648 -75 c66 -14 139 -25 162 -25 22 0 89 -15 148 -34 59 -19 136 -42
171 -51 92 -24 159 -60 167 -90 8 -31 -3 -75 -23 -97 -22 -24 -30 -23 -69 12
-85 74 -391 112 -557 69 -25 -7 -42 -19 -49 -35 -6 -13 -15 -24 -19 -24 -14 0
-37 52 -58 131 -12 40 -32 90 -46 111 -14 20 -25 42 -25 48 0 17 70 11 198
-15z m-6784 -311 c12 -11 13 -20 6 -35 -15 -27 -124 -115 -173 -141 -23 -11
-61 -34 -85 -50 -48 -33 -71 -31 -97 8 -9 14 -33 44 -53 66 l-36 40 21 17 c23
19 178 77 257 96 74 19 142 18 160 -1z m7213 -36 c121 -41 128 -45 131 -71 2
-18 -7 -45 -28 -78 -27 -41 -37 -49 -62 -49 -63 0 -318 167 -318 208 0 56 89
53 277 -10z m-6037 -33 c18 -22 -7 -55 -77 -101 -80 -54 -123 -113 -123 -170
0 -31 5 -46 16 -51 19 -7 168 68 208 105 36 33 65 97 66 140 0 32 29 72 53 72
46 0 177 -48 177 -65 0 -7 -16 -22 -35 -34 -45 -26 -46 -55 -2 -77 42 -22 40
-18 46 -67 4 -29 11 -43 23 -45 21 -4 133 91 154 131 29 54 49 53 243 -9 190
-62 254 -90 358 -159 108 -70 112 -74 134 -117 11 -22 49 -78 84 -123 50 -66
66 -95 75 -142 26 -124 45 -145 160 -178 146 -41 242 -131 323 -303 l32 -67 0
-180 c0 -177 -1 -182 -34 -285 -39 -125 -112 -265 -194 -375 -65 -88 -111
-177 -127 -251 -6 -27 -30 -84 -54 -129 -145 -271 -138 -263 -258 -290 -115
-26 -142 -41 -183 -101 -44 -63 -133 -147 -186 -174 -20 -11 -92 -38 -160 -61
-100 -34 -145 -43 -234 -50 -60 -4 -153 -14 -205 -23 -304 -49 -363 -58 -445
-65 -164 -16 -245 -60 -380 -206 -125 -134 -163 -155 -287 -155 -63 0 -99 5
-121 16 -18 9 -74 61 -125 115 -69 73 -103 101 -135 112 l-42 14 -6 119 c-7
126 -20 171 -66 233 -14 18 -41 39 -59 47 -41 17 -44 42 -13 128 15 43 20 85
21 158 0 91 -2 104 -30 161 -17 34 -51 86 -76 114 -48 57 -49 72 -13 140 9 15
37 75 63 133 46 100 49 110 52 208 5 126 -5 168 -70 300 l-50 103 38 82 c59
127 56 246 -11 333 -14 18 -25 37 -25 42 0 4 41 46 90 91 50 46 100 102 112
125 29 58 35 158 13 229 -26 83 -40 67 250 260 50 33 120 81 156 108 70 52
115 73 124 60 2 -5 -4 -44 -15 -86 -22 -85 -27 -239 -9 -250 16 -10 88 45 125
95 54 73 75 127 88 229 15 114 25 136 68 150 76 23 155 33 177 22 28 -15 27
-20 -15 -75 -43 -57 -58 -104 -45 -139 14 -36 29 -42 53 -20 24 21 78 129 78
156 0 29 18 56 50 72 66 34 179 45 200 20z m6374 -144 c48 -82 57 -126 34
-176 -13 -28 -30 -32 -48 -10 -7 9 -44 32 -82 52 -39 20 -72 43 -75 51 -3 7 4
26 16 40 12 15 35 48 52 75 17 26 36 47 43 47 7 0 34 -35 60 -79z m-8019 -8
c40 -87 38 -104 -10 -119 -23 -6 -61 -21 -85 -33 -24 -11 -54 -21 -67 -21 -21
0 -23 4 -23 59 0 67 23 111 79 148 56 38 76 32 106 -34z m6634 17 l47 -21 45
20 c53 25 80 26 184 6 85 -17 121 -34 194 -94 88 -74 333 -231 378 -242 55
-14 62 -39 37 -117 -24 -74 -23 -154 4 -215 23 -52 121 -161 165 -183 35 -19
35 -50 2 -132 -58 -143 -55 -212 15 -296 l39 -47 -14 -44 c-7 -25 -26 -68 -42
-97 -34 -61 -73 -219 -73 -296 0 -96 59 -272 116 -349 39 -52 32 -84 -38 -173
-15 -19 -39 -61 -53 -93 -21 -49 -25 -72 -25 -154 l0 -96 36 -33 c44 -42 41
-56 -31 -134 -71 -77 -120 -179 -119 -245 1 -27 5 -64 9 -81 7 -30 3 -35 -72
-97 -98 -83 -195 -132 -298 -153 -68 -14 -131 -16 -425 -11 -190 3 -376 10
-415 15 -38 6 -126 16 -195 22 -161 15 -234 34 -490 128 -157 57 -295 120
-342 155 -18 13 -74 45 -123 71 -99 50 -148 94 -192 171 -25 44 -39 55 -111
91 -59 30 -107 65 -169 124 -89 84 -146 119 -195 120 -15 0 -38 10 -52 23 -30
27 -66 124 -66 176 0 67 47 251 83 325 20 39 63 130 98 201 34 72 74 148 89
170 15 22 49 80 75 130 44 85 47 93 41 144 -4 30 -15 74 -26 99 -26 58 -25 64
10 184 17 55 30 114 30 130 0 39 -24 94 -60 134 -54 62 -61 144 -18 199 27 34
50 45 213 100 158 53 189 67 225 101 90 83 340 209 439 221 58 6 101 -9 101
-37 0 -46 -39 -99 -96 -131 -111 -63 -153 -179 -65 -179 38 0 84 32 118 82 40
60 67 62 115 5 62 -75 244 -153 303 -131 22 9 19 21 -14 63 -15 20 -43 61 -60
93 -41 72 -74 105 -133 133 -70 33 -118 68 -118 87 0 21 29 38 64 38 14 0 85
15 158 34 73 19 168 37 211 41 l78 7 47 -50 c52 -57 102 -82 160 -82 44 0 77
27 66 54 -9 22 -56 46 -93 46 -41 0 -83 18 -79 32 3 7 38 18 79 24 41 7 85 17
99 22 39 16 77 14 129 -8z m-1766 -20 c-3 -11 -7 -20 -9 -20 -2 0 -4 9 -4 20
0 11 4 20 9 20 5 0 7 -9 4 -20z m3015 -226 c116 -58 118 -61 112 -119 -3 -29
-51 -116 -67 -122 -8 -3 -41 8 -74 25 -33 17 -57 27 -54 22 3 -4 2 -10 -2 -13
-5 -2 -2 -2 6 0 12 3 11 0 -2 -15 -9 -10 -14 -23 -10 -28 5 -5 -3 0 -17 11
-15 12 -20 14 -12 4 12 -16 7 -29 -10 -29 -5 0 -6 5 -3 10 3 6 4 10 1 10 -3 0
-7 -4 -11 -9 -3 -6 23 -30 59 -56 65 -46 82 -68 69 -88 -33 -54 -98 -127 -112
-127 -30 0 -106 91 -130 153 -11 32 -21 65 -21 73 0 25 30 74 45 74 7 0 17 5
21 12 5 7 2 9 -8 6 -11 -5 -15 3 -16 34 -1 21 -9 46 -17 54 -24 24 -18 42 18
50 17 4 37 8 42 8 15 1 34 68 27 100 -5 28 -4 29 24 22 16 -3 80 -31 142 -62z
m-7734 -4 c51 -55 54 -67 27 -101 -28 -36 -189 -142 -205 -136 -17 7 -96 123
-96 141 0 7 8 20 18 29 32 28 177 116 193 116 9 1 37 -21 63 -49z m-346 -152
c7 -7 12 -23 12 -37 0 -15 9 -46 20 -70 34 -74 29 -91 -44 -139 -35 -23 -71
-44 -79 -48 -20 -7 -34 20 -42 82 -10 73 9 131 60 181 45 46 54 50 73 31z
m8368 -44 c43 -73 42 -234 -2 -251 -15 -6 -156 120 -162 144 -2 8 15 34 37 58
23 25 41 48 41 53 0 15 41 53 50 47 6 -3 21 -26 36 -51z m-7908 -84 c5 -87 -4
-111 -62 -173 -77 -80 -95 -78 -141 13 -19 38 -35 76 -35 83 0 8 33 36 73 62
95 64 118 76 142 73 17 -3 20 -12 23 -58z m7753 -194 c24 -18 58 -38 74 -43
26 -9 30 -14 29 -44 -2 -50 -54 -169 -74 -169 -9 0 -34 15 -56 34 -21 18 -54
41 -71 50 -39 20 -41 39 -13 121 33 97 44 102 111 51z m-8046 -32 c61 -61 64
-79 17 -110 -15 -9 -46 -37 -69 -61 -30 -32 -47 -43 -61 -39 -25 8 -102 104
-102 127 0 18 131 139 150 139 5 0 35 -25 65 -56z m-255 -210 c7 -20 26 -58
43 -85 l30 -49 -27 -39 c-34 -49 -51 -160 -41 -271 7 -85 24 -120 59 -120 33
0 163 44 220 74 26 14 53 23 60 20 7 -3 25 -40 40 -82 80 -225 79 -237 -25
-504 -6 -14 -22 -36 -35 -49 l-24 -23 -30 35 c-54 64 -57 76 -26 108 35 36 66
151 66 247 0 112 -13 115 -192 48 -68 -26 -136 -47 -152 -48 -28 -1 -30 2 -71
119 -72 203 -84 394 -32 508 37 82 85 147 107 147 12 0 22 -12 30 -36z m8540
-3 c37 -73 71 -175 77 -232 15 -150 -72 -482 -133 -506 -8 -3 -40 6 -72 20
-77 34 -206 77 -230 77 -10 0 -27 -9 -37 -20 -27 -30 -15 -140 29 -265 44
-123 45 -152 10 -165 -59 -23 -67 -17 -115 88 l-44 97 0 135 0 135 39 78 c22
42 48 84 58 93 16 15 20 14 52 -14 37 -33 171 -82 223 -82 40 0 49 15 64 107
14 81 -3 187 -45 280 -14 30 -26 64 -26 75 0 18 106 137 122 138 4 0 17 -18
28 -39z m-8164 -56 c24 -102 13 -178 -30 -214 -13 -11 -17 -8 -29 21 -8 18
-33 55 -56 83 -56 68 -54 85 17 129 31 20 64 35 72 34 9 -2 20 -24 26 -53z
m7813 6 c56 -55 67 -94 30 -106 -11 -4 -43 -27 -70 -51 -27 -24 -53 -44 -57
-44 -48 0 -41 176 9 237 19 22 35 15 88 -36z m-7978 -223 c32 -29 59 -58 59
-65 0 -15 -56 -62 -89 -75 -66 -25 -94 25 -71 124 20 86 21 86 101 16z m8101
20 c21 -17 40 -90 32 -123 -10 -40 -34 -47 -100 -30 -31 8 -59 17 -62 19 -12
13 14 65 52 103 47 47 54 49 78 31z m46 -549 c26 -7 51 -15 56 -20 20 -17 -81
-138 -104 -124 -17 11 -40 70 -40 104 0 18 7 34 18 40 21 13 15 13 70 0z
m-8178 -19 c10 -18 7 -63 -7 -112 -7 -29 -35 -21 -88 26 l-49 43 31 32 c38 38
96 44 113 11z m8393 -155 c30 -77 28 -150 -6 -207 -27 -47 -52 -68 -80 -68
-13 0 -53 56 -99 135 -25 43 -23 92 3 100 11 4 43 27 71 51 65 58 86 56 111
-11z m-8554 -22 c69 -77 74 -100 34 -148 -16 -18 -41 -49 -56 -69 -34 -45 -57
-46 -89 -3 -56 73 -74 148 -47 200 16 31 71 87 85 87 7 0 40 -30 73 -67z m205
-178 c47 -20 47 -39 0 -147 -19 -46 -39 -93 -44 -105 -5 -13 -14 -23 -20 -23
-22 0 -120 63 -120 76 0 8 22 52 49 97 28 45 53 90 56 100 9 21 31 22 79 2z
m8116 -71 c84 -99 85 -112 14 -170 -54 -45 -62 -42 -114 35 -20 29 -48 59 -63
67 -15 8 -27 18 -27 23 0 18 90 131 104 131 8 0 47 -38 86 -86z m-7954 -146
c36 -44 74 -126 74 -163 0 -36 -40 -120 -57 -120 -17 0 -153 134 -153 151 0
22 59 138 77 152 24 17 28 16 59 -20z m7769 -75 c26 -49 36 -79 31 -95 -7 -27
-117 -101 -143 -96 -29 5 -45 97 -27 164 22 85 65 138 90 111 7 -7 29 -44 49
-84z m-8106 -55 c25 -23 54 -54 64 -70 19 -28 19 -28 -6 -58 -14 -16 -33 -52
-42 -79 -27 -82 -52 -90 -98 -29 -55 72 -60 189 -11 248 14 16 30 30 36 30 6
0 32 -19 57 -42z m8458 -5 c27 -70 22 -136 -16 -211 -17 -34 -43 -69 -57 -79
-25 -16 -27 -16 -40 2 -8 10 -14 31 -14 47 0 15 -11 62 -25 105 -14 43 -25 86
-25 95 0 11 20 27 53 43 28 15 56 31 62 36 22 22 44 8 62 -38z m-263 -175 c8
-13 21 -43 29 -68 9 -25 22 -61 31 -81 13 -31 13 -39 1 -56 -20 -29 -111 -85
-131 -81 -21 4 -103 147 -97 169 6 21 126 139 142 139 6 0 17 -10 25 -22z
m-7943 -28 c69 -48 76 -71 48 -142 -12 -31 -18 -64 -15 -80 7 -37 -6 -42 -65
-27 -38 10 -57 10 -80 2 -26 -10 -31 -9 -40 9 -17 32 2 146 46 266 8 23 50 12
106 -28z m7713 -197 c15 -51 25 -114 20 -127 -3 -9 -15 -16 -26 -16 -12 0 -38
-5 -60 -12 -55 -16 -64 -3 -39 63 32 85 91 137 105 92z m-7495 -30 c28 -35 36
-69 22 -99 -13 -30 -32 -30 -98 1 -64 29 -67 46 -15 91 45 40 64 42 91 7z
m-304 -118 c27 -20 53 -42 57 -49 4 -8 4 -37 -2 -65 -10 -53 1 -139 25 -196 6
-16 31 -54 54 -82 33 -43 47 -53 71 -53 35 0 99 54 156 132 62 84 64 84 168
-24 50 -52 116 -122 146 -155 77 -84 144 -118 234 -116 85 2 149 31 286 132
172 127 169 124 163 149 -6 24 3 28 27 12 13 -8 12 -10 -4 -10 -11 0 -16 -3
-13 -6 4 -4 44 12 90 36 80 40 91 43 208 52 68 5 197 11 287 14 139 5 166 4
187 -10 14 -9 25 -25 25 -35 0 -31 -58 -106 -118 -154 -92 -72 -182 -214 -182
-287 0 -47 -19 -54 -112 -40 -46 6 -111 15 -146 20 -72 9 -92 22 -92 59 0 47
-19 97 -49 125 -24 23 -38 28 -80 28 -60 0 -105 -24 -183 -97 -29 -28 -66 -60
-81 -72 -28 -22 -29 -22 -65 -3 -54 28 -185 55 -357 75 -196 22 -301 44 -464
95 -118 37 -138 47 -173 83 -38 39 -88 126 -88 154 0 7 -12 52 -26 100 -32
110 -35 223 -6 223 4 0 29 -16 57 -35z m4706 -27 c30 -23 68 -55 85 -71 45
-41 215 -124 282 -137 88 -18 199 -54 302 -100 52 -23 119 -50 149 -61 93 -33
284 -139 328 -181 64 -63 110 -182 79 -207 -21 -18 -163 1 -259 35 -39 15 -92
33 -117 41 -25 8 -92 32 -150 54 -58 21 -123 41 -145 45 -77 11 -346 114 -404
153 -71 49 -148 130 -193 201 -19 30 -42 61 -52 69 -45 37 -61 135 -30 179 24
34 63 28 125 -20z m3377 20 c17 -17 15 -112 -3 -199 -18 -84 -54 -154 -111
-218 -47 -53 -97 -77 -234 -116 -52 -15 -124 -36 -160 -46 -35 -10 -85 -19
-110 -19 -25 0 -103 -14 -175 -31 -249 -58 -350 -70 -397 -48 -13 6 -35 27
-49 47 -37 54 -128 113 -182 119 -73 9 -91 -8 -160 -147 l-62 -125 -145 -2
c-80 -2 -158 -4 -174 -4 -33 -2 -66 30 -66 63 0 35 -59 168 -94 211 -45 58
-50 73 -25 98 20 20 29 21 113 15 50 -4 186 -11 301 -16 116 -5 260 -13 320
-19 191 -17 389 -13 526 10 107 18 136 27 209 67 47 25 105 60 129 79 60 45
83 43 120 -10 37 -55 103 -115 135 -123 40 -10 78 17 124 86 53 81 72 143 72
236 0 64 3 75 22 88 27 19 59 21 76 4z m-4772 -84 c30 -29 27 -54 -11 -119
-39 -67 -165 -204 -224 -244 -117 -79 -194 -109 -401 -156 -63 -14 -158 -39
-210 -55 -52 -16 -160 -41 -240 -56 -84 -15 -161 -35 -183 -47 -38 -21 -39
-21 -53 -2 -18 25 -17 41 5 91 33 72 211 196 426 296 161 75 293 133 334 149
19 7 57 28 84 47 28 19 75 45 106 59 31 13 74 33 96 44 32 15 61 19 143 19 97
0 104 -1 128 -26z m4544 7 c18 -35 12 -105 -13 -142 -12 -19 -31 -35 -40 -37
-24 -5 -107 49 -107 70 0 9 16 30 36 45 20 15 51 40 68 55 37 33 42 34 56 9z
m-7595 -34 c51 -28 57 -63 21 -118 -26 -38 -64 -58 -86 -44 -31 19 -56 166
-33 189 10 10 51 -1 98 -27z m3723 -57 c18 -11 35 -27 38 -35 4 -8 12 -15 20
-15 8 0 13 -3 13 -7 -3 -21 2 -26 12 -13 9 12 10 12 5 -4 -5 -14 10 -36 56
-85 35 -37 100 -109 145 -161 45 -52 129 -144 187 -204 134 -140 168 -202 174
-321 4 -75 1 -93 -33 -196 -35 -107 -50 -140 -121 -264 -52 -92 -182 -258
-210 -269 -8 -3 -36 13 -63 37 -27 23 -70 59 -95 80 -25 21 -46 46 -46 56 0 9
16 33 36 52 20 18 69 84 109 144 97 146 130 250 130 405 -1 95 -4 113 -34 189
-42 103 -113 211 -185 279 -74 70 -94 69 -161 -3 -29 -30 -60 -55 -71 -55 -12
0 -31 19 -52 51 -39 59 -71 78 -100 58 -45 -32 -127 -140 -162 -214 -58 -123
-73 -184 -68 -284 7 -143 88 -314 227 -481 30 -36 62 -71 72 -77 20 -15 59
-75 59 -91 0 -18 -141 -122 -165 -122 -17 0 -26 9 -34 32 -6 18 -45 82 -85
143 -92 137 -185 327 -252 515 -31 85 -32 189 -4 255 42 97 156 240 355 443
177 181 228 208 303 162z m-2718 -224 c0 -3 -4 -8 -10 -11 -5 -3 -10 -1 -10 4
0 6 5 11 10 11 6 0 10 -2 10 -4z m2817 -224 c30 -19 114 -167 128 -225 19 -81
19 -191 -1 -277 -16 -70 -84 -198 -156 -292 -20 -26 -39 -57 -43 -68 -11 -34
-46 -23 -106 33 -254 238 -343 526 -229 747 40 77 88 99 138 64 29 -20 28 -53
-2 -112 -40 -80 -59 -159 -54 -227 6 -73 32 -125 90 -184 72 -73 109 -78 169
-24 105 95 119 185 50 330 -24 50 -55 99 -73 114 -35 29 -33 49 9 99 24 29 55
38 80 22z m-2679 -49 c3 -19 -1 -23 -22 -23 -28 0 -41 14 -32 36 9 24 50 13
54 -13z m5303 7 c25 -14 24 -46 -1 -60 -11 -6 -37 -12 -57 -13 -35 -2 -38 0
-35 22 5 51 49 74 93 51z m-5351 -151 c85 -13 138 -29 144 -44 2 -7 -1 -35 -8
-61 -11 -43 -16 -49 -37 -47 -24 2 -140 38 -229 72 -53 20 -63 48 -29 82 17
17 28 20 58 15 20 -4 65 -11 101 -17z m1492 0 c29 -6 94 -30 143 -53 71 -33
101 -55 141 -99 54 -59 137 -202 172 -298 50 -136 163 -332 254 -443 71 -84
67 -94 -62 -183 -58 -40 -115 -79 -127 -88 -17 -13 -26 -14 -42 -6 -21 12
-148 187 -250 346 -35 55 -88 137 -117 182 -30 45 -54 89 -54 98 0 10 27 28
73 49 44 20 85 47 105 70 27 31 32 44 32 90 0 91 -62 164 -179 212 -72 30
-134 30 -185 1 -62 -35 -82 -69 -78 -135 9 -158 12 -145 -33 -160 -22 -7 -50
-17 -62 -23 -45 -23 -59 3 -91 161 -7 30 -17 74 -24 96 -10 36 -9 46 8 79 28
54 101 93 195 104 107 12 122 12 181 0z m3916 -25 c125 22 152 12 122 -45 -8
-15 -21 -19 -58 -19 -26 0 -88 -12 -136 -26 -49 -14 -100 -24 -115 -22 -23 3
-26 7 -25 40 1 21 8 48 17 62 16 24 17 24 57 9 37 -15 48 -15 138 1z m-2815
-36 c43 -57 51 -167 15 -190 -54 -34 -107 61 -86 154 16 73 36 83 71 36z
m-2172 8 c68 -1 91 -5 106 -19 26 -23 110 -184 101 -192 -4 -4 -65 5 -135 21
-70 15 -152 28 -182 29 -63 1 -68 8 -73 90 -3 54 -1 60 22 72 15 8 35 10 50 6
14 -4 64 -7 111 -7z m3668 -4 c122 -12 125 -16 116 -137 -8 -116 -27 -204 -45
-215 -19 -12 -167 -13 -174 -1 -3 5 1 28 10 52 21 59 21 137 2 174 -10 18 -38
42 -66 58 -70 38 -124 36 -210 -7 -130 -66 -173 -145 -141 -259 12 -44 70 -91
133 -108 46 -13 58 -25 49 -54 -5 -18 -90 -166 -120 -210 -7 -11 -52 -78 -100
-150 -47 -71 -97 -143 -111 -160 -14 -16 -33 -49 -43 -72 -10 -25 -25 -43 -34
-43 -20 0 -127 54 -183 92 -23 16 -63 38 -87 49 -42 19 -49 27 -46 55 1 6 49
83 108 170 113 169 216 371 253 494 36 121 95 226 143 252 65 36 295 44 546
20z m995 2 c3 -9 6 -33 6 -54 0 -48 -26 -70 -113 -99 -75 -25 -209 -53 -257
-55 l-35 -1 -2 68 c-1 55 2 69 16 77 18 9 77 19 231 40 47 6 96 18 110 25 32
18 37 18 44 -1z m-4160 -16 c29 -12 55 -73 87 -197 23 -90 25 -131 4 -131 -24
0 -148 49 -186 74 -24 16 -39 36 -47 64 -7 22 -29 60 -48 84 -40 47 -58 84
-50 105 7 17 203 18 240 1z m3650 -39 c14 -7 26 -19 26 -26 0 -18 -58 -103
-156 -230 -23 -31 -29 -33 -87 -33 -35 0 -68 5 -74 11 -8 8 -1 42 24 122 36
114 65 161 107 171 33 7 131 -2 160 -15z m-5177 -8 c26 -5 83 -15 126 -22 42
-6 84 -17 92 -23 18 -13 13 -36 -39 -208 -15 -48 -35 -131 -46 -184 -10 -53
-23 -101 -28 -106 -24 -24 -70 7 -187 126 -90 92 -134 145 -176 216 -31 52
-59 105 -63 118 -11 34 1 72 27 82 29 12 234 12 294 1z m6802 3 c18 -4 39 -17
48 -30 14 -22 12 -29 -42 -125 -72 -130 -122 -197 -207 -281 -84 -83 -139
-121 -170 -116 -20 3 -25 12 -36 73 -12 71 -51 244 -77 347 -8 32 -15 69 -15
83 0 24 3 25 63 25 34 1 91 7 127 14 69 15 257 20 309 10z m-6069 -58 c0 -3
-4 -8 -10 -11 -5 -3 -10 -1 -10 4 0 6 5 11 10 11 6 0 10 -2 10 -4z m-253 -32
c58 -15 130 -26 176 -27 57 -2 80 -6 87 -17 26 -40 -7 -228 -59 -341 -50 -109
-126 -156 -290 -179 -45 -6 -88 -13 -95 -16 -19 -7 -44 27 -55 77 -11 50 -3
121 29 249 10 41 26 116 35 165 9 50 19 96 21 103 5 18 43 15 151 -14z m5699
-11 c30 -45 60 -148 84 -293 11 -69 25 -141 30 -161 6 -20 10 -41 10 -47 0
-17 -49 -39 -109 -50 -105 -19 -263 46 -323 133 -42 62 -78 159 -78 213 0 29
-8 62 -20 86 -16 29 -18 41 -10 51 15 18 90 41 155 49 28 4 84 17 125 31 93
30 109 28 136 -12z m-4002 -31 c16 -9 38 -29 49 -44 17 -23 19 -32 9 -52 -20
-46 -104 -82 -149 -65 -22 8 -53 83 -53 130 0 58 71 73 144 31z m2314 0 c7 -9
11 -28 8 -42 -6 -35 -66 -138 -83 -145 -18 -6 -120 68 -128 94 -24 76 155 158
203 93z m-3505 -81 c39 -10 124 -34 187 -54 63 -20 131 -39 150 -42 19 -3 60
-18 90 -33 53 -26 55 -29 62 -75 7 -48 20 -73 146 -267 31 -47 70 -107 87
-135 18 -27 49 -75 69 -106 40 -62 43 -80 21 -132 -8 -20 -15 -47 -15 -61 0
-13 -8 -34 -18 -46 l-18 -23 -46 21 c-111 49 -189 41 -258 -27 -39 -38 -50
-56 -60 -103 -11 -50 -11 -63 4 -103 20 -51 41 -65 133 -89 81 -21 148 -20
216 3 31 11 59 16 61 12 4 -7 -19 -152 -30 -190 -3 -9 -12 -11 -32 -6 -15 4
-61 10 -102 15 -167 17 -462 189 -554 324 -48 68 -46 100 4 104 68 5 195 34
231 52 123 63 205 180 202 290 -2 112 -76 246 -169 310 -39 27 -42 28 -47 11
-2 -11 -3 -33 -2 -51 2 -23 -1 -30 -11 -26 -25 10 -15 -9 27 -49 81 -79 109
-186 70 -267 -37 -78 -139 -140 -261 -158 -30 -4 -67 -11 -82 -15 -50 -13 -81
49 -90 180 -2 35 -7 42 -39 57 -21 9 -40 26 -44 37 -3 12 -11 21 -16 21 -7 0
-10 -46 -8 -125 2 -88 0 -128 -9 -137 -28 -28 -268 61 -374 140 -63 47 -133
121 -143 151 -12 39 9 48 113 53 99 4 118 10 206 66 28 17 35 26 26 32 -8 5
-15 29 -16 54 -2 38 2 49 21 65 14 10 22 21 20 25 -3 3 -2 4 1 2 3 -2 19 0 35
6 22 8 34 7 47 -3 9 -7 14 -9 10 -5 -4 5 0 15 10 23 9 8 12 12 6 9 -7 -3 -14
3 -17 14 -6 23 2 33 18 20 20 -17 33 31 41 142 4 57 11 111 16 121 9 17 11 17
34 2 13 -9 57 -24 97 -34z m4697 -26 c0 -37 17 -158 31 -216 12 -50 97 -178
140 -210 82 -63 137 -83 239 -87 92 -4 130 -13 130 -31 0 -24 -93 -127 -154
-171 -118 -84 -338 -167 -391 -147 -14 6 -16 13 -9 45 5 20 9 93 9 162 -1 118
-3 131 -38 229 -43 122 -57 145 -100 171 -39 24 -136 27 -215 7 -97 -26 -215
-130 -275 -244 -45 -87 -53 -137 -33 -205 43 -147 154 -240 327 -273 46 -9 94
-18 105 -20 34 -7 36 -33 7 -86 -43 -80 -205 -209 -306 -245 -23 -8 -59 -25
-82 -38 -63 -37 -141 -56 -232 -56 -92 0 -123 16 -123 64 0 50 -14 87 -47 126
-40 46 -38 70 5 70 22 0 34 -9 53 -37 47 -72 178 -95 307 -53 78 26 99 42 119
89 33 78 -50 228 -141 252 -47 13 -123 4 -189 -22 -27 -11 -52 -17 -57 -14
-18 11 -22 153 -7 251 15 98 16 100 61 139 42 38 127 156 206 289 43 71 141
206 162 224 13 10 22 10 50 -3 32 -16 37 -15 146 20 132 42 178 52 250 54 l52
1 0 -35z m-4021 -169 c15 -18 37 -123 28 -133 -17 -16 -94 104 -84 131 8 20
40 21 56 2z m2909 2 c7 -7 42 -15 78 -19 36 -4 70 -11 75 -16 5 -5 1 -46 -12
-104 -11 -51 -31 -150 -45 -219 -14 -69 -27 -135 -29 -147 -3 -12 -25 -44 -49
-73 -24 -28 -70 -90 -101 -138 -64 -97 -122 -162 -143 -162 -7 0 -33 14 -57
30 -24 17 -69 40 -100 52 -60 23 -115 66 -115 91 0 8 11 29 24 48 14 19 58 83
98 144 40 60 83 123 95 140 34 48 137 215 169 274 30 56 75 111 91 111 5 0 14
-5 21 -12z m358 -2 c10 -25 -60 -136 -85 -136 -12 0 -18 18 -26 74 -7 45 -7
46 26 61 43 18 78 19 85 1z m-2976 -16 c47 0 91 -4 98 -9 7 -4 16 -23 19 -42
6 -39 31 -91 80 -169 19 -30 61 -97 93 -148 32 -51 73 -112 92 -135 54 -68
107 -150 113 -178 8 -33 3 -36 -143 -109 -147 -72 -174 -75 -195 -22 -8 20
-38 69 -66 107 -27 39 -64 89 -81 113 -46 63 -108 181 -125 238 -10 34 -13 70
-8 122 4 45 1 100 -7 142 -15 81 -10 105 23 96 12 -3 60 -6 107 -6z m3534
-172 c52 -48 91 -253 76 -402 -10 -104 -23 -116 -125 -116 -211 0 -363 163
-296 316 43 97 91 147 196 203 54 28 116 28 149 -1z m-2168 -214 c49 -37 95
-69 102 -71 25 -10 10 -46 -55 -126 -74 -91 -80 -97 -106 -97 -21 0 -211 177
-215 201 -2 10 18 35 51 62 29 26 59 58 67 72 22 42 57 33 156 -41z m-320
-196 c15 -24 55 -73 90 -110 94 -98 102 -80 -128 -275 -72 -61 -100 -67 -123
-24 -8 16 -34 51 -57 78 -70 80 -128 164 -128 184 0 13 18 28 58 48 31 17 95
55 142 85 47 31 93 56 102 56 10 0 29 -19 44 -42z m595 16 c18 -22 114 -86
175 -117 63 -32 84 -52 84 -79 0 -21 -89 -135 -171 -220 -42 -43 -89 -64 -89
-39 0 10 -24 33 -148 141 -107 94 -110 106 -41 176 165 168 165 168 190 138z
m-1613 -235 c74 -80 77 -85 58 -115 -20 -29 -18 -29 -91 -1 -60 23 -60 23 -63
67 -5 63 6 110 24 110 9 0 41 -27 72 -61z m2660 25 c32 -22 28 -39 -30 -105
-44 -49 -59 -59 -86 -59 -20 0 -35 6 -38 15 -8 19 50 119 83 145 31 24 42 25
71 4z m-2054 -76 c163 -184 196 -229 186 -249 -18 -33 -228 -169 -263 -169
-11 0 -38 19 -61 43 -58 59 -176 199 -194 230 -15 25 -15 28 8 53 14 14 66 46
117 70 51 24 97 53 103 64 18 34 46 23 104 -42z m1554 -25 c177 -85 178 -74
-10 -289 -26 -29 -50 -65 -54 -79 -12 -47 -34 -47 -118 -3 -43 22 -106 58
-139 79 -33 21 -64 39 -69 39 -31 0 19 86 102 175 21 22 54 66 75 98 43 68 27
70 213 -20z m-2474 27 c30 -12 57 -28 60 -37 9 -22 -19 -62 -52 -74 -25 -10
-111 -5 -155 7 -46 14 -39 82 12 109 36 20 72 18 135 -5z m3341 -5 c31 -31 32
-70 3 -89 -35 -22 -107 -28 -162 -14 -90 24 -83 68 18 107 71 28 111 27 141
-4z m-1707 -47 c99 -89 174 -149 214 -169 21 -11 38 -23 38 -28 0 -21 -59 -91
-158 -187 -86 -84 -111 -104 -129 -99 -28 7 -129 88 -215 172 -98 95 -99 92
64 235 52 47 79 78 83 98 10 44 36 38 103 -22z m-1430 -90 c-2 -13 -11 -24
-20 -26 -21 -4 -24 18 -6 36 19 19 30 14 26 -10z m296 -10 c2 -7 9 -31 15 -53
6 -25 41 -78 92 -140 101 -125 107 -135 85 -151 -39 -28 -155 -56 -213 -52
-116 9 -159 60 -88 106 41 26 75 76 75 110 0 13 -14 57 -31 97 -17 41 -28 79
-24 85 9 15 85 13 89 -2z m2272 -32 c3 -8 -4 -32 -14 -53 -47 -92 -34 -160 41
-211 22 -15 42 -33 45 -40 2 -7 -16 -21 -45 -34 -70 -32 -171 -31 -238 2 -87
43 -77 67 109 273 69 76 92 90 102 63z m-2462 -67 c35 -28 35 -72 0 -104 -45
-42 -84 -28 -84 29 0 32 33 96 49 96 4 0 20 -9 35 -21z m2620 -40 c47 -56 25
-92 -40 -64 -29 12 -34 19 -34 48 0 18 3 37 7 40 15 15 43 5 67 -24z m-1676
-86 c12 -23 53 -66 90 -96 87 -72 138 -134 126 -155 -5 -8 -41 -27 -79 -43
-93 -37 -157 -38 -239 -2 -70 30 -191 116 -207 145 -13 24 -7 31 55 67 25 14
82 50 128 79 45 29 87 51 93 49 5 -2 20 -22 33 -44z m789 16 c10 -17 57 -56
111 -90 59 -37 92 -65 92 -76 0 -49 -230 -173 -320 -173 -40 0 -156 39 -197
66 -29 19 -30 51 -1 60 12 3 77 60 144 125 67 66 129 119 137 119 9 0 24 -14
34 -31z"/>
<path d="M6769 6623 c-9 -10 -14 -40 -13 -85 1 -80 13 -102 90 -160 57 -44
101 -55 141 -36 40 19 40 43 -2 89 -20 22 -45 62 -56 87 -23 53 -52 88 -91
108 -35 18 -53 18 -69 -3z"/>
<path d="M7286 6015 c-13 -13 -13 -21 -1 -61 17 -57 25 -67 88 -102 29 -16 69
-48 89 -71 20 -22 41 -41 47 -41 18 0 40 30 47 64 11 64 -63 183 -133 212 -44
19 -118 18 -137 -1z"/>
<path d="M8230 5681 c0 -12 5 -21 11 -21 5 0 8 4 5 9 -3 4 9 7 27 5 34 -4 23
7 -20 20 -19 6 -23 3 -23 -13z"/>
</g>
</svg>
